<svg xmlns="http://www.w3.org/2000/svg" width="466.1" height="317" viewBox="0 0 466.1 317"><title>lines</title><path d="M392.8 8.5l64.7 60-155.8 80-67.6 80" fill="none" stroke="#121212" stroke-width="4.5"/><path d="M234.2 228.5l-83.7 80" fill="none" stroke="#121212" stroke-width="2.25" stroke-dasharray="5 5"/><circle cx="392.9" cy="8.5" r="7.5" fill="#fff" stroke="#121212" stroke-width="2"/><circle cx="457.6" cy="68.5" r="7.5" fill="#fff" stroke="#121212" stroke-width="2"/><circle cx="301.8" cy="148.5" r="7.5" fill="#fff" stroke="#121212" stroke-width="2"/><circle cx="234.2" cy="228.5" r="7.5" fill="#fff" stroke="#121212" stroke-width="2"/><circle cx="150.5" cy="308.5" r="7.5" fill="#fff" stroke="#121212" stroke-width="2"/><path d="M253.6 8.5l120.9 60-122.9 80 82.9 80" fill="none" stroke="#fd0" stroke-width="4.5"/><path d="M334.5 228.5l-199 80" fill="none" stroke="#fd0" stroke-width="2.25" stroke-dasharray="5 5"/><circle cx="253.7" cy="8.5" r="7.5" fill="#fff" stroke="#fd0" stroke-width="2"/><circle cx="374.5" cy="68.5" r="7.5" fill="#fff" stroke="#fd0" stroke-width="2"/><circle cx="251.6" cy="148.5" r="7.5" fill="#fff" stroke="#fd0" stroke-width="2"/><circle cx="334.5" cy="228.5" r="7.5" fill="#fff" stroke="#fd0" stroke-width="2"/><circle cx="135.5" cy="308.5" r="7.5" fill="#fff" stroke="#fd0" stroke-width="2"/><path d="M67.2 8.5l31.2 60-35.2 80-54.7 80" fill="none" stroke="#0a8000" stroke-width="4.5"/><path d="M8.5 228.5l92.1 80" fill="none" stroke="#0a8000" stroke-width="2.25" stroke-dasharray="5 5"/><circle cx="67.2" cy="8.5" r="7.5" fill="#fff" stroke="#0a8000" stroke-width="2"/><circle cx="98.4" cy="68.5" r="7.5" fill="#fff" stroke="#0a8000" stroke-width="2"/><circle cx="63.2" cy="148.5" r="7.5" fill="#fff" stroke="#0a8000" stroke-width="2"/><circle cx="8.5" cy="228.5" r="7.5" fill="#fff" stroke="#0a8000" stroke-width="2"/><circle cx="100.6" cy="308.5" r="7.5" fill="#fff" stroke="#0a8000" stroke-width="2"/></svg>
