<svg xmlns="http://www.w3.org/2000/svg" width="598" height="561" viewBox="0 0 598 561"><title>robot</title><path d="M478.5,49.7l66.8,61.9L384.4,194.3l-69.8,82.6" fill="none" stroke="#121212" stroke-width="4.5"/><path d="M314.7,276.9l-86.4,82.6" fill="none" stroke="#121212" stroke-width="3.5" stroke-dasharray="5 5"/><circle cx="478.6" cy="49.7" r="7.7" fill="#fff" stroke="#121212" stroke-width="2"/><circle cx="545.4" cy="111.7" r="7.7" fill="#fff" stroke="#121212" stroke-width="2"/><circle cx="384.5" cy="194.3" r="7.7" fill="#fff" stroke="#121212" stroke-width="2"/><circle cx="314.7" cy="276.9" r="7.7" fill="#fff" stroke="#121212" stroke-width="2"/><circle cx="228.3" cy="359.4" r="7.7" fill="#fff" stroke="#121212" stroke-width="2"/><path d="M334.8,49.7l124.8,61.9L332.7,194.3l85.6,82.6" fill="none" stroke="#fd0" stroke-width="4.5"/><path d="M418.3,276.9,212.8,359.4" fill="none" stroke="#fd0" stroke-width="3.5" stroke-dasharray="5 5"/><circle cx="334.9" cy="49.7" r="7.7" fill="#fff" stroke="#fd0" stroke-width="2"/><circle cx="459.6" cy="111.7" r="7.7" fill="#fff" stroke="#fd0" stroke-width="2"/><circle cx="332.7" cy="194.3" r="7.7" fill="#fff" stroke="#fd0" stroke-width="2"/><circle cx="418.3" cy="276.9" r="7.7" fill="#fff" stroke="#fd0" stroke-width="2"/><circle cx="212.8" cy="359.4" r="7.7" fill="#fff" stroke="#fd0" stroke-width="2"/><path d="M142.3,49.7l32.2,61.9-36.3,82.6L81.7,276.9" fill="none" stroke="#0a8000" stroke-width="4.5"/><path d="M81.7,276.9l95.1,82.6" fill="none" stroke="#0a8000" stroke-width="3.5" stroke-dasharray="5 5"/><circle cx="142.3" cy="49.7" r="7.7" fill="#fff" stroke="#0a8000" stroke-width="2"/><circle cx="174.5" cy="111.7" r="7.7" fill="#fff" stroke="#0a8000" stroke-width="2"/><circle cx="138.2" cy="194.3" r="7.7" fill="#fff" stroke="#0a8000" stroke-width="2"/><circle cx="81.7" cy="276.9" r="7.7" fill="#fff" stroke="#0a8000" stroke-width="2"/><circle cx="176.8" cy="359.4" r="7.7" fill="#fff" stroke="#0a8000" stroke-width="2"/><path d="M266.7,452.1a32.7,32.7,0,1,0,32.7,32.7A32.7,32.7,0,0,0,266.7,452.1Zm-.5,51.6a18.9,18.9,0,1,1,18.9-18.9A18.9,18.9,0,0,1,266.2,503.7Z" fill="#fff"/><path d="M143,452.1a32.7,32.7,0,1,0,32.7,32.7A32.7,32.7,0,0,0,143,452.1Zm-.3,51.6a18.9,18.9,0,1,1,18.9-18.9A18.9,18.9,0,0,1,142.8,503.7Z" fill="#fff"/><path d="M357.7,462.2H344.5v-4.6A51.6,51.6,0,0,0,293,406.1H252.4l20.8-20.8s-130.8.9-129.9,0L164,406.1H114.1a51.6,51.6,0,0,0-51.5,51.5v5.5H51.3A11.3,11.3,0,0,0,40,474.5v54.7a11.3,11.3,0,0,0,11.3,11.3H62.6v38.1A51.6,51.6,0,0,0,114.1,630H293a51.6,51.6,0,0,0,51.5-51.5v-39h13.2A11.3,11.3,0,0,0,369,528.2V473.5A11.3,11.3,0,0,0,357.7,462.2ZM142.6,530.7A46.4,46.4,0,1,1,189,484.3,46.4,46.4,0,0,1,142.6,530.7Zm123.7,0a46.4,46.4,0,1,1,46.4-46.4A46.4,46.4,0,0,1,266.3,530.7Z" fill="#fff"/></svg>